<?xml version="1.0" encoding="utf-8"?>
<!-- Generator: Adobe Illustrator 21.1.0, SVG Export Plug-In . SVG Version: 6.00 Build 0)  -->
<svg version="1.1" id="图层_1" xmlns="http://www.w3.org/2000/svg" xmlns:xlink="http://www.w3.org/1999/xlink" x="0px" y="0px"
	 viewBox="0 0 566.9 167.8" style="enable-background:new 0 0 566.9 167.8;" xml:space="preserve">
<style type="text/css">
	.st0{fill:#009649;}
	.st1{fill:#332C2B;}
</style>
<g>
	<g id="_x23_009649ff">
		<path class="st0" d="M148.3,1.5C152.8,0,158,1.9,160.4,6c2.3,3.6,2,8.7-0.7,12c-2.7,3.5-7.8,4.9-12,3.2c-4-1.5-6.8-5.7-6.6-10
			C141.2,6.9,144.2,2.8,148.3,1.5 M149.9,2.7c-3.6,0.6-6.6,3.7-7.1,7.3c-0.6,3.3,0.9,6.9,3.7,8.7c2.6,1.8,6.2,2.1,9,0.7
			c2.7-1.3,4.6-4.1,4.9-7c0.3-2.9-0.9-6-3.3-7.8C155.2,2.9,152.5,2.2,149.9,2.7z"/>
		<path class="st0" d="M147,5.6c2.4,0.1,4.8-0.3,7.2,0.3c2.3,0.5,3,3.7,1.5,5.4c-0.5,0.6-1.3,0.8-2,1.1c1.1,1.5,2.2,3,3.3,4.4
			c-1.1,0-2.1,0-3.2,0c-0.9-1.5-1.8-2.9-2.7-4.3c-0.5,0-1,0-1.5,0c0,1.5,0,2.9,0,4.4c-0.9,0-1.7,0-2.5,0C147,13.1,147,9.3,147,5.6
			 M149.6,7.5c0,1,0,2,0,3c1.1,0,2.2,0.1,3.3-0.1c1.2-0.3,1.2-2.4,0-2.7C151.8,7.4,150.7,7.6,149.6,7.5z"/>
		<path class="st0" d="M51.9,14c15.5-6.4,33.1-7.7,49.4-3.7c12.5,3.1,24.3,9.3,33.9,17.9c10.3,9.1,18.2,21,22.6,34
			c6.8,20.1,5.3,42.9-4.4,61.8C130.2,87,107,49.9,83.9,12.9c-0.2-0.4-0.5-0.4-0.7,0C65.4,41.4,47.7,70,29.9,98.5
			c-5.8,9.3-11.6,18.7-17.5,28C5.7,114.1,2.1,100,2.5,85.9c0.3-15.2,5.1-30.3,13.7-42.9C25,30.2,37.5,19.9,51.9,14z"/>
		<path class="st0" d="M45.6,78.1c7.9-4.1,16.4-7.4,25.2-8.6c5.6-0.7,11.9-0.5,16.6,3.1c5,4,11.4,5.8,17.7,6.2
			c5.1,0.3,10.2-0.2,15.1-1.4c-12.2,18.3-24.4,36.5-36.6,54.8C71,114.1,58.3,96.1,45.6,78.1 M80.3,85.9c-0.6,0.8-1.5,2-0.7,3
			c1,0.2,1.8-0.6,2.3-1.4c2.4-3.5,5.9-6.1,9.8-7.9C87.3,80.3,83,82.4,80.3,85.9 M82.3,93.8c-0.9,1.7-1.9,3.6-1.8,5.6
			c0,0.6,0.3,1.4,1,1.4c1.1,0,2-0.8,2.5-1.7c2.8-4.4,6.7-8.2,11.5-10.2c-3.1,0.6-5.9,2.3-8.8,3.5c0.1-1,0.3-2,0.8-2.8
			c1.8-3.2,4.2-6,6.3-8.9C89.2,84.2,85.1,88.7,82.3,93.8 M81.3,108.8c-2.9-6.4-7-12.5-12.6-16.8c5.7,7.9,9,17.2,10.9,26.7
			c0.1,1,0.8,1.8,1.8,2.2c1.1,0.3,2.1-0.6,2.6-1.4c0.4-2.6,0-5.3,0.4-7.9c0.5-2.6,1.7-5,3-7.2c2.8-4.8,6.5-9,10.4-13
			C90.5,95.1,85.1,101.7,81.3,108.8z"/>
		<path class="st0" d="M15.5,131.5c6.5-3.2,13.7-5.7,21-5c3.5,0.3,6.6,1.8,9.8,2.9c7.1,2.7,14.1,5.7,21.5,7.6
			c5.2,1.4,10.9,1.9,15.9-0.4c6,2.7,13,3.7,19.3,1.7c2.5-0.8,4.8-2.2,6.9-3.8c6.8-4.9,15.1-8.1,23.6-8c5.6,0,11.1,1.4,16.3,3.5
			c-9.8,15.8-25.2,27.9-42.8,33.7c-6.9,2.3-14,3.5-21.3,3.9c-2.9,0.3-5.8,0.1-8.7-0.1c-12.5-0.8-24.7-4.6-35.4-10.9
			C31.3,150.4,22.2,141.7,15.5,131.5z"/>
	</g>
	<g id="_x23_332c2bff">
		<path class="st1" d="M554.6,27.3c4.8-0.9,9.7,3,10.1,7.8c0.6,4.6-3.2,9.2-7.8,9.6c-4.6,0.6-9.1-3.1-9.6-7.7
			C546.6,32.5,550,27.9,554.6,27.3 M553.4,28.9c-2.7,1-4.8,3.6-4.9,6.5c-0.2,3.1,1.7,6.2,4.5,7.3c2.7,1.2,6,0.6,8.1-1.5
			c2.2-2,2.9-5.4,1.7-8.2C561.4,29.5,557,27.5,553.4,28.9z"/>
		<path class="st1" d="M552.1,31c2.2,0.2,4.6-0.4,6.6,0.5c2.1,1.2,1.4,4.8-1,5.2c0.9,1.3,1.8,2.5,2.7,3.7c-0.9,0-1.8,0-2.7,0
			c-0.8-1.2-1.5-2.5-2.3-3.7c-0.4,0-0.8,0-1.2,0c0,1.2,0,2.5,0,3.7c-0.7,0-1.4,0-2.1,0C552.1,37.3,552.1,34.2,552.1,31 M554.2,32.7
			c0,0.8,0,1.7,0,2.5c1,0,2,0.1,2.9-0.2c0.9-0.4,0.8-2.1-0.3-2.3C556,32.6,555.1,32.7,554.2,32.7z"/>
		<path class="st1" d="M212.5,45.9c3-3,5.7-6.3,8-9.9c5.8,0.3,11.6,0.5,17.4,0.7c-0.4,1.3-1,2.5-1.7,3.6c8.9,11,21.3,18.5,34.4,23.7
			c-2.7,4.5-5.5,8.9-7.9,13.6c-4.6-2.4-9.2-5-13.6-7.9c-0.2,2.4-0.6,4.8-0.2,7.2c1.1,6.6,3.5,13,7.3,18.5c3.8,5.7,9,10.3,14.8,14
			c-3.7,3.8-7.3,7.7-10.7,11.8c-5.5-4.5-10.5-9.7-14-15.9c-1.3-2.2-2.1-4.6-3.2-6.9c-3.2,9.9-11,17.4-18.9,23.8
			c-3.2-3.8-6.4-7.7-10.4-10.7c5.9-3.8,11.4-8.5,15.3-14.4c3.6-5.5,5.4-12.1,5.5-18.7c0.5-4,0.6-8,0.7-12.1c2.9,0,5.9,0,8.8,0
			c-6-4.5-11.5-9.8-16-15.8c-5.7,6.5-12.3,12.1-19.3,17.2c2.7,0,5.4,0,8.2,0c-0.4,3.4-0.4,6.9-0.7,10.3c4.7,3.4,9.5,6.8,14.3,10.1
			c-2.8,4-5.5,8.1-8.2,12.2c-1-0.8-2-1.6-2.9-2.6c-1.6-1.7-3.5-3.2-5.3-4.6c-3.1,11.4-11.4,20.7-20.4,27.9
			c-3.6-3.4-6.8-7.3-10.7-10.4c4.9-3.5,9.5-7.6,12.9-12.6c3.3-4.9,5.4-10.7,5.7-16.6c0-3.3,0.8-6.5,0.8-9.8
			c-3.6,2.4-7.3,4.5-11.1,6.4c-2.5-4.3-4.8-8.6-7.9-12.5C193.9,60.5,204.1,54.2,212.5,45.9z"/>
		<path class="st1" d="M294.3,36.3c2.6,0.1,5.3-0.1,8,0.1c2.1,0.3,4.3,1.1,5.6,2.9c1.1,1.6,0.7,3.7,0.8,5.5
			c3.7-0.4,7.4-0.7,11.1-1.1c1.2,4.2,2.4,8.4,3.6,12.5c-4.9,0.2-9.8,0.6-14.6,1.1c0,2.9,0,5.7,0,8.6c3.9,0,7.8,0,11.7,0l0.1,0.1
			c0.1,4.1,0,8.3,0,12.4c-3.9,0-7.9,0-11.8,0c0.1,2.6-0.2,5.2-0.4,7.8c4.8,0.1,9.6,0,14.4,0c0,4.2,0,8.3,0,12.5c-5,0.1-10,0-15,0.1
			c-0.6,9.3-5.9,17.5-12.2,24c-4-3-8-6-12.2-8.6c4.4-4.3,8.4-9.3,9.7-15.4c-4.9,0-9.8,0-14.7,0c0-4.2,0-8.4,0-12.5
			c5.4,0,10.7,0,16.1,0c0-2.6,0-5.3,0-7.9c-4.3,0-8.6,0-12.9,0c0-4.2,0-8.4,0-12.5c4.3,0,8.6,0,12.9,0c0-2.6,0-5.2,0-7.9
			c-4.8,0.2-9.5,0.5-14.3,0.7c-0.6-4.2-1.5-8.4-2.5-12.5c5.6-0.4,11.2-0.7,16.8-0.7C294.3,42.5,294.3,39.4,294.3,36.3z"/>
		<path class="st1" d="M409.6,36.3c3.9,0.1,8-0.6,11.6,1.2c2,0.9,3.7,2.8,3.7,5.1c0.1,3.4,0.1,6.8,0,10.2c9.4,0,18.8,0,28.3,0
			c0,4.7,0,9.3,0,14c-9.4,0-18.8,0-28.3,0c0,4.1-0.1,8.2,0,12.2c8.2-0.1,16.4,0,24.7,0c0,4.5,0,9.1,0,13.6c-8.2,0-16.4,0-24.7,0
			c-0.1,4.4,0,8.8-0.1,13.2c10.6,0.1,21.2,0,31.9,0c0.1,4.4,0,8.8,0,13.3c-27.7,0-55.3,0-83,0c0-4.4,0-8.8,0-13.2
			c11.9-0.1,23.9,0,35.8,0c0-4.4,0-8.8,0-13.3c-9.8,0-19.5,0-29.3,0c0-4.5,0-9.1,0-13.6c9.8,0,19.6,0,29.3,0c0-4.1,0-8.1,0-12.2
			c-5.7-0.1-11.5,0-17.2,0c-2.1,4-4,8.1-6.5,11.8c-4.4-2.6-9-4.8-13.5-7.2c6.4-9.5,11.1-20.2,13.5-31.5c5.1,0.7,10.1,1.6,15.1,2.5
			c-0.9,3.5-2,7-3.2,10.4c3.9,0,7.9,0,11.8,0C409.6,47.3,409.6,41.8,409.6,36.3z"/>
		<path class="st1" d="M478.7,36.3c4.4,0,8.8,0,13.2,0c0,6,0,11.9,0,17.9c1.5,0,3.1,0,4.7,0c0,1.4,0,2.9,0,4.3
			c4.5-6.9,7.9-14.6,10-22.6c4.4,1.1,8.8,2.1,13.2,3.2c-0.9,2-1.4,4.1-2.4,6.1c-0.5,1.1-1,2.2-1.5,3.3c6.2,0,12.3,0,18.5,0
			c3.2,0.1,6.6-0.4,9.6,1.1c2.6,1,4.8,3.5,4.6,6.4c-0.5,15.4-1,30.8-1.5,46.2c0,4-0.3,8.3-2.5,11.8c-2,3.1-5.6,4.9-9.2,5.3
			c-4.9,0.5-9.9,0.5-14.8,0.6c-1.1-3.3-1.2-6.8-2.5-10c-4.2,4-8.7,7.8-13.2,11.5c-3.3-3.6-6.7-7.1-10.6-10c5.5-3.5,10.7-7.6,15-12.6
			c9.1-10.3,13.7-23.8,14.9-37.3c-1.1,0-2.1,0-3.2,0c-1.5,12.4-6.2,24.6-14.8,33.8c-1.1,1.2-2.3,2.3-3.4,3.5
			c-1.8-1.8-3.6-3.6-5.4-5.4c-1.8,0.3-3.6,0.6-5.4,1.1c0,9.2,0,18.4,0,27.6c-4.4,0-8.8,0-13.2,0c0-8.2,0-16.5,0-24.7
			c-4.6,0.7-9.1,1.7-13.6,2.9c-0.3-5.1-0.7-10.3-1.1-15.4c4.9-0.7,9.8-1.4,14.7-2.2c0-5.1,0-10.3,0-15.4c-1.4,0-2.9,0-4.3,0
			c-0.5,3.5-1,7-1.8,10.4c-3-0.7-5.9-2.1-8.9-2.6c2.1-10.4,3.1-20.9,3.6-31.5c3.1,0.2,6.2,0.5,9.3,0.7c-0.2,3.3-0.4,6.7-0.7,10
			c0.9,0,1.9,0,2.8,0C478.7,48.3,478.7,42.3,478.7,36.3 M500.9,74c-2.1-2.1-4.1-4.3-5.7-6.8c-1.1,0-2.2,0-3.3,0c0,4.4,0,8.8,0,13.3
			c1.9-0.5,3.8-0.8,5.7-1.1c0,1.8,0,3.6,0,5.4c7.1-6,11.9-14.4,14.3-23.3c-0.8,0-1.7,0-2.5,0C507.1,65.9,504.2,70.1,500.9,74
			 M528.4,90.2c-1.7,6.1-4.1,12.1-8.2,17c2.8,0,5.5,0,8.3,0c1.6,0,3.4-0.5,4.4-1.8c1.2-1.6,1.3-3.7,1.3-5.6
			c0.7-12.8,1.2-25.6,1.8-38.4c-1.1,0-2.1,0-3.2,0C532.1,71.1,530.9,80.8,528.4,90.2z"/>
		<path class="st1" d="M324.7,39.9c12.4,0,24.8,0.1,37.2,0c0.1,3.9,0,7.8,0.1,11.8c0.1,1.3-0.4,2.5-0.8,3.7c-2,6.6-4,13.1-6,19.7
			c4.5,4.5,8.4,10.3,8.9,16.9c0.1,4.2,0.2,8.6-1.8,12.4c-1.4,3-4.1,5.2-7.2,6.2c-4.5,1.6-9.2,0.9-13.9,1.1c-0.8-3.2-1.6-6.4-2.5-9.5
			c-0.1,6.4,0,12.8,0,19.2c-4.7,0-9.3,0-14,0C324.7,94.1,324.7,67,324.7,39.9 M338.6,52.8c0,15,0,30.1,0,45.1
			c2.4,0.3,4.9,0.1,7.3-0.1c1.6-0.1,3.1-1.2,3.5-2.8c0.5-2,0.3-4.1-0.1-6.1c-1.3-5.1-4.5-9.4-7.8-13.3c2-7.6,4.1-15.3,6.1-22.9
			C344.6,52.8,341.6,52.7,338.6,52.8z"/>
	</g>
</g>
</svg>
